<svg version="1.1" id="Layer_1" xmlns="http://www.w3.org/2000/svg" xmlns:xlink="http://www.w3.org/1999/xlink" x="0px" y="0px"
	 viewBox="0 0 504.123 504.123" style="enable-background:new 0 0 504.123 504.123;" xml:space="preserve">
<path style="fill:#FFD110;" d="M287.311,86.158c0,19.464-15.785,35.241-35.249,35.241c-19.448,0-35.249-15.777-35.249-35.241
	C216.812,66.67,232.613,0,252.062,0C271.525,0,287.311,66.67,287.311,86.158z"/>
<path style="fill:#F7B90B;" d="M252.062,0c19.464,0,35.249,66.67,35.249,86.158c0,19.464-15.785,35.241-35.249,35.241"/>
<path style="fill:#FFD110;" d="M216.812,417.965c0-19.464,15.785-35.241,35.249-35.241c19.448,0,35.249,15.777,35.249,35.241
	c0,19.495-15.801,86.158-35.249,86.158C232.598,504.123,216.812,437.453,216.812,417.965z"/>
<path style="fill:#F7B90B;" d="M252.062,504.123c-19.464,0-35.249-66.67-35.249-86.158c0-19.464,15.785-35.241,35.249-35.241"/>
<path style="fill:#FFD110;" d="M394.295,159.673c-13.769,13.761-36.076,13.769-49.829,0c-13.753-13.753-13.769-36.076-0.016-49.837
	c13.785-13.785,72.09-49.751,85.843-36.005C444.062,87.591,408.08,145.896,394.295,159.673z"/>
<path style="fill:#F7B90B;" d="M430.293,73.823c13.769,13.769-22.213,72.074-35.998,85.843c-13.769,13.761-36.076,13.769-49.829,0"
	/>
<path style="fill:#FFD110;" d="M109.828,344.45c13.753-13.761,36.076-13.761,49.829,0c13.753,13.753,13.769,36.076,0.016,49.845
	c-13.785,13.769-72.09,49.751-85.843,35.998C60.062,416.532,96.043,358.235,109.828,344.45z"/>
<path style="fill:#F7B90B;" d="M73.83,430.301c-13.769-13.769,22.213-72.066,35.998-85.843c13.753-13.761,36.076-13.761,49.829,0"/>
<path style="fill:#FFD110;" d="M417.957,287.303c-19.448,0.016-35.249-15.77-35.233-35.233c0-19.464,15.777-35.249,35.233-35.249
	c19.495,0,86.158,15.785,86.166,35.241C504.123,271.533,437.445,287.319,417.957,287.303z"/>
<path style="fill:#F7B90B;" d="M504.123,252.062c0,19.472-66.678,35.257-86.166,35.241c-19.448,0.016-35.249-15.77-35.233-35.233"/>
<path style="fill:#FFD110;" d="M86.158,216.82c19.464,0,35.249,15.785,35.249,35.241s-15.785,35.241-35.249,35.257
	C66.662,287.303,0,271.518,0,252.062C0,232.59,66.662,216.82,86.158,216.82z"/>
<path style="fill:#F7B90B;" d="M0,252.062c0-19.472,66.662-35.241,86.158-35.241c19.464,0,35.249,15.785,35.249,35.241"/>
<path style="fill:#FFD110;" d="M344.442,394.287c-13.745-13.737-13.761-36.068,0.008-49.814
	c13.761-13.753,36.076-13.777,49.845-0.016c13.769,13.777,49.751,72.09,35.998,85.843
	C416.524,444.069,358.219,408.072,344.442,394.287z"/>
<path style="fill:#F7B90B;" d="M430.293,430.301c-13.769,13.769-72.074-22.229-85.851-36.013
	c-13.745-13.737-13.761-36.068,0.008-49.814"/>
<path style="fill:#FFD110;" d="M159.665,109.828c13.753,13.761,13.769,36.084,0,49.837c-13.753,13.761-36.076,13.761-49.829,0
	c-13.785-13.785-49.759-72.074-35.998-85.843C87.591,60.062,145.888,96.043,159.665,109.828z"/>
<path style="fill:#F7B90B;" d="M73.83,73.823c13.761-13.761,72.058,22.221,85.827,36.005c13.753,13.761,13.769,36.084,0,49.837"/>
<path style="fill:#FFD110;" d="M199.633,90.758c9.736,16.857,3.962,38.416-12.895,48.136c-16.849,9.72-38.4,3.954-48.152-12.895
	c-9.72-16.88-29.397-82.519-12.548-92.239C142.895,24.04,189.889,73.886,199.633,90.758z"/>
<path style="fill:#F7B90B;" d="M126.039,33.768c16.857-9.728,63.85,40.117,73.594,56.99c9.736,16.857,3.962,38.416-12.895,48.136"/>
<path style="fill:#FFD110;" d="M304.498,413.365c-9.728-16.857-3.954-38.416,12.887-48.144c16.849-9.72,38.439-3.946,48.152,12.91
	c9.744,16.872,29.389,82.503,12.54,92.223C361.244,480.083,314.234,430.238,304.498,413.365z"/>
<path style="fill:#F7B90B;" d="M378.077,470.347c-16.833,9.736-63.842-40.109-73.578-56.982
	c-9.728-16.857-3.954-38.416,12.887-48.144"/>
<path style="fill:#FFD110;" d="M329.051,100.943c-5.041,18.786-24.363,29.948-43.158,24.907
	c-18.786-5.041-29.948-24.363-24.93-43.158c5.057-18.842,37.565-79.139,56.328-74.106
	C336.108,13.627,334.084,82.117,329.051,100.943z"/>
<path style="fill:#F7B90B;" d="M317.29,8.594c18.818,5.041,16.794,73.523,11.76,92.357c-5.041,18.786-24.363,29.948-43.158,24.907"
	/>
<path style="fill:#FFD110;" d="M175.088,403.196c5.041-18.794,24.379-29.956,43.158-24.907c18.802,5.025,29.972,24.348,24.93,43.158
	c-5.049,18.818-37.565,79.132-56.352,74.09C168.015,490.488,170.031,422.006,175.088,403.196z"/>
<path style="fill:#F7B90B;" d="M186.825,495.529c-18.81-5.049-16.794-73.523-11.737-92.341
	c5.041-18.794,24.379-29.956,43.158-24.907"/>
<path style="fill:#FFD110;" d="M413.373,199.633c-16.849,9.728-38.416,3.978-48.152-12.887c-9.72-16.865-3.938-38.416,12.91-48.152
	c16.88-9.744,82.511-29.397,92.239-12.572C480.091,142.903,430.245,189.897,413.373,199.633z"/>
<path style="fill:#F7B90B;" d="M470.363,126.023c9.728,16.88-40.117,63.874-56.99,73.61c-16.849,9.728-38.416,3.978-48.152-12.887"
	/>
<path style="fill:#FFD110;" d="M90.774,304.49c16.841-9.728,38.424-3.954,48.128,12.902c9.72,16.849,3.954,38.416-12.895,48.152
	c-16.896,9.728-82.527,29.389-92.239,12.556C24.048,361.236,73.878,314.242,90.774,304.49z"/>
<path style="fill:#F7B90B;" d="M33.776,378.1c-9.728-16.865,40.101-63.858,56.997-73.61c16.841-9.728,38.424-3.954,48.128,12.902"/>
<path style="fill:#FFD110;" d="M403.196,329.035c-18.794-5.033-29.964-24.355-24.907-43.15c5.025-18.794,24.355-29.964,43.15-24.93
	c18.834,5.049,79.139,37.557,74.098,56.336C490.504,336.116,422.014,334.1,403.196,329.035z"/>
<path style="fill:#F7B90B;" d="M495.529,317.298c-5.033,18.818-73.515,16.801-92.341,11.737
	c-18.794-5.033-29.964-24.355-24.907-43.15"/>
<path style="fill:#FFD110;" d="M100.919,175.088c18.802,5.041,29.972,24.371,24.938,43.158
	c-5.049,18.802-24.363,29.964-43.166,24.923c-18.834-5.041-79.124-37.549-74.098-56.344
	C13.635,168.023,82.109,170.039,100.919,175.088z"/>
<path style="fill:#F7B90B;" d="M8.594,186.825c5.049-18.802,73.515-16.786,92.333-11.737c18.802,5.041,29.972,24.371,24.938,43.158"
	/>
<path style="fill:#FFD110;" d="M126.039,138.587c16.841,9.72,22.615,31.295,12.887,48.144c-9.72,16.833-31.295,22.623-48.167,12.902
	c-16.857-9.744-66.694-56.753-56.974-73.61C43.512,109.174,109.135,128.843,126.039,138.587z"/>
<path style="fill:#F7B90B;" d="M33.776,126.023c9.736-16.849,75.359,2.82,92.262,12.564c16.841,9.72,22.615,31.295,12.887,48.144"/>
<path style="fill:#FFD110;" d="M378.14,365.529c-16.865-9.72-22.646-31.287-12.926-48.136c9.712-16.841,31.311-22.63,48.152-12.895
	c16.88,9.728,66.71,56.753,56.966,73.602C460.635,394.949,394.996,375.28,378.14,365.529z"/>
<path style="fill:#F7B90B;" d="M470.339,378.1c-9.704,16.849-75.335-2.82-92.199-12.572c-16.865-9.72-22.646-31.287-12.926-48.136"
	/>
<path style="fill:#FFD110;" d="M243.176,82.684c5.041,18.802-6.112,38.132-24.907,43.166c-18.794,5.018-38.132-6.128-43.158-24.907
	c-5.057-18.849-7.058-87.324,11.713-92.357C205.627,3.552,238.127,63.866,243.176,82.684z"/>
<path style="fill:#F7B90B;" d="M186.825,8.594c18.81-5.041,51.31,55.28,56.352,74.09c5.041,18.802-6.112,38.132-24.907,43.166"/>
<path style="fill:#FFD110;" d="M260.97,421.431c-5.025-18.794,6.136-38.124,24.923-43.158c18.802-5.041,38.124,6.105,43.158,24.923
	c5.057,18.826,7.042,87.308-11.76,92.341C298.496,500.571,266.012,440.257,260.97,421.431z"/>
<path style="fill:#F7B90B;" d="M317.29,495.529c-18.802,5.041-51.279-55.28-56.32-74.098c-5.025-18.794,6.136-38.124,24.923-43.158"
	/>
<path style="fill:#FFD110;" d="M365.536,126.007c-9.712,16.849-31.279,22.646-48.136,12.91
	c-16.841-9.736-22.615-31.303-12.887-48.152c9.728-16.88,56.745-66.71,73.594-56.997
	C394.957,43.512,375.288,109.135,365.536,126.007z"/>
<path style="fill:#F7B90B;" d="M378.108,33.76c16.849,9.752-2.82,75.374-12.572,92.247c-9.712,16.849-31.279,22.646-48.136,12.91"/>
<path style="fill:#FFD110;" d="M138.602,378.116c9.712-16.849,31.295-22.638,48.136-12.895c16.849,9.72,22.63,31.287,12.895,48.136
	c-9.736,16.88-56.753,66.725-73.594,56.982C109.182,460.627,128.827,394.996,138.602,378.116z"/>
<path style="fill:#F7B90B;" d="M126.039,470.347c-16.857-9.72,2.788-75.343,12.564-92.231c9.712-16.849,31.295-22.638,48.136-12.895
	"/>
<path style="fill:#FFD110;" d="M421.447,243.168c-18.786,5.041-38.14-6.112-43.142-24.915c-5.049-18.794,6.089-38.124,24.883-43.166
	c18.826-5.049,87.316-7.05,92.341,11.737C500.586,205.635,440.281,238.127,421.447,243.168z"/>
<path style="fill:#F7B90B;" d="M495.529,186.825c5.057,18.818-55.257,51.31-74.082,56.344c-18.786,5.041-38.14-6.112-43.142-24.915"
	/>
<path style="fill:#FFD110;" d="M82.692,260.97c18.786-5.041,38.124,6.113,43.166,24.907c5.049,18.802-6.097,38.124-24.938,43.158
	c-18.802,5.065-87.284,7.05-92.333-11.737C3.568,298.488,63.858,266.012,82.692,260.97z"/>
<path style="fill:#F7B90B;" d="M8.594,317.298c-5.025-18.818,55.272-51.295,74.098-56.328c18.786-5.041,38.124,6.113,43.166,24.907"
	/>
<g>
	<circle style="fill:#1A3D5B;" cx="252.062" cy="252.062" r="146.739"/>
	<path style="fill:#1A3D5B;" d="M252.062,407.875c-41.63,0-80.754-16.203-110.182-45.631c-60.755-60.763-60.755-159.61,0-220.365
		c29.428-29.428,68.569-45.647,110.182-45.647s80.738,16.219,110.175,45.647c60.755,60.755,60.755,159.602,0,220.357
		C332.8,391.672,293.675,407.875,252.062,407.875z"/>
</g>
<path style="fill:#E5A10A;" d="M252.062,105.314c37.549,0,75.114,14.32,103.763,42.984c57.297,57.305,57.297,150.213,0,207.525
	c-28.648,28.656-66.213,42.977-103.763,42.977c-37.557,0-75.122-14.32-103.763-42.969c-57.297-57.313-57.297-150.221,0-207.533
	C176.939,119.635,214.52,105.314,252.062,105.314 M252.062,87.158c-44.048,0-85.449,17.156-116.602,48.309
	c-64.284,64.284-64.284,168.889,0,233.196c31.153,31.137,72.554,48.286,116.602,48.286c44.04,0,85.449-17.148,116.594-48.301
	c64.299-64.291,64.299-168.897,0-233.188C337.51,104.314,296.109,87.158,252.062,87.158L252.062,87.158z"/>
<path style="fill:#082130;" d="M355.824,148.299c57.297,57.305,57.297,150.213,0,207.525
	c-57.313,57.305-150.213,57.305-207.525,0.008"/>
<g>
	<path style="fill:#0E2C42;" d="M360.976,172.639c0,2.19-1.772,3.97-3.97,3.97H147.117c-2.206,0-3.978-1.78-3.978-3.97l0,0
		c0-2.182,1.772-3.97,3.978-3.97h209.888C359.211,168.669,360.976,170.457,360.976,172.639L360.976,172.639z"/>
	<path style="fill:#0E2C42;" d="M360.976,212.346c0,2.19-1.772,3.978-3.97,3.978H147.117c-2.206,0-3.978-1.788-3.978-3.978l0,0
		c0-2.182,1.772-3.97,3.978-3.97h209.888C359.211,208.376,360.976,210.164,360.976,212.346L360.976,212.346z"/>
	<path style="fill:#0E2C42;" d="M360.976,252.062c0,2.19-1.772,3.97-3.97,3.97H147.117c-2.206,0-3.978-1.78-3.978-3.97l0,0
		c0-2.19,1.772-3.978,3.978-3.978h209.888C359.211,248.084,360.976,249.872,360.976,252.062L360.976,252.062z"/>
	<path style="fill:#0E2C42;" d="M360.976,291.769c0,2.19-1.772,3.978-3.97,3.978H147.117c-2.206,0-3.978-1.788-3.978-3.978l0,0
		c0-2.19,1.772-3.97,3.978-3.97h209.888C359.211,287.799,360.976,289.579,360.976,291.769L360.976,291.769z"/>
	<path style="fill:#0E2C42;" d="M360.976,331.485c0,2.182-1.772,3.97-3.97,3.97H147.117c-2.206,0-3.978-1.788-3.978-3.97l0,0
		c0-2.19,1.772-3.97,3.978-3.97h209.888C359.211,327.515,360.976,329.295,360.976,331.485L360.976,331.485z"/>
	<path style="fill:#0E2C42;" d="M331.477,360.976c-2.198,0-3.97-1.772-3.97-3.97V147.117c0-2.198,1.772-3.97,3.97-3.97l0,0
		c2.182,0,3.97,1.772,3.97,3.97v209.888C335.447,359.211,333.659,360.976,331.477,360.976L331.477,360.976z"/>
	<path style="fill:#0E2C42;" d="M291.769,360.976c-2.198,0-3.97-1.772-3.97-3.97V147.117c0-2.198,1.772-3.97,3.97-3.97l0,0
		c2.182,0,3.97,1.772,3.97,3.97v209.888C295.739,359.211,293.951,360.976,291.769,360.976L291.769,360.976z"/>
	<path style="fill:#0E2C42;" d="M252.062,360.976c-2.198,0-3.97-1.772-3.97-3.97V147.117c0-2.198,1.772-3.97,3.97-3.97l0,0
		c2.182,0,3.97,1.772,3.97,3.97v209.888C256.032,359.211,254.243,360.976,252.062,360.976L252.062,360.976z"/>
	<path style="fill:#0E2C42;" d="M212.354,360.976c-2.198,0-3.986-1.772-3.986-3.97V147.117c0-2.198,1.788-3.97,3.986-3.97l0,0
		c2.182,0,3.97,1.772,3.97,3.97v209.888C216.324,359.211,214.536,360.976,212.354,360.976L212.354,360.976z"/>
	<path style="fill:#0E2C42;" d="M172.639,360.976c-2.19,0-3.97-1.772-3.97-3.97V147.117c0-2.198,1.78-3.97,3.97-3.97l0,0
		c2.182,0,3.978,1.772,3.978,3.97v209.888C176.616,359.211,174.82,360.976,172.639,360.976L172.639,360.976z"/>
</g>
<g>
</g>
<g>
</g>
<g>
</g>
<g>
</g>
<g>
</g>
<g>
</g>
<g>
</g>
<g>
</g>
<g>
</g>
<g>
</g>
<g>
</g>
<g>
</g>
<g>
</g>
<g>
</g>
<g>
</g>
</svg>
